<svg width="200" height="300" viewBox="0 0 200 300" fill="none" xmlns="http://www.w3.org/2000/svg">
<rect width="200" height="300" fill="white"/>
<path d="M53.4 129.56H59.16L54.96 159H49.2L51.76 141.04L44.24 159H38.76L39.56 140.96L32.88 159H29.68L39.84 131.52C37.7867 132.213 36.2133 133.333 35.12 134.88C34.0267 136.427 33.48 138.307 33.48 140.52C33.48 141.053 33.5067 141.52 33.56 141.92C33.64 142.293 33.76 142.64 33.92 142.96C33.9733 143.067 34 143.147 34 143.2C34.0267 143.227 34.04 143.253 34.04 143.28C32.6 143.28 31.52 142.987 30.8 142.4C30.1067 141.787 29.76 140.867 29.76 139.64C29.76 138.36 30.1467 137.067 30.92 135.76C31.72 134.427 32.8133 133.213 34.2 132.12C35.4533 131.133 36.8 130.373 38.24 129.84C39.68 129.28 41.0933 129 42.48 129C42.9867 129 43.4933 129.053 44 129.16C44.5333 129.24 45.04 129.373 45.52 129.56L44.6 150.64L53.4 129.56ZM65.1644 155.36C65.831 155.36 66.431 155.08 66.9644 154.52C67.4977 153.96 67.9377 153.147 68.2844 152.08L71.0844 139H76.8444L72.8844 157.56C74.2177 157.08 75.2577 156.413 76.0044 155.56C76.7777 154.68 77.4177 153.44 77.9244 151.84H79.6044C78.991 153.867 78.111 155.493 76.9644 156.72C75.8444 157.947 74.3644 158.813 72.5244 159.32L71.9244 162.2C71.4444 164.44 70.6044 166.133 69.4044 167.28C68.2044 168.427 66.6444 169 64.7244 169C63.3644 169 62.271 168.653 61.4444 167.96C60.6444 167.267 60.2444 166.32 60.2444 165.12C60.2444 163.813 60.7777 162.653 61.8444 161.64C62.9377 160.653 64.5777 159.827 66.7644 159.16L67.2444 157C66.5777 157.747 65.8444 158.307 65.0444 158.68C64.271 159.053 63.4044 159.24 62.4444 159.24C61.111 159.24 60.0577 158.827 59.2844 158C58.5377 157.147 58.1644 155.96 58.1644 154.44C58.1644 154.093 58.191 153.707 58.2444 153.28C58.2977 152.827 58.3777 152.347 58.4844 151.84L61.2044 139H66.9644L64.0844 152.6C64.0577 152.76 64.031 152.933 64.0044 153.12C63.9777 153.28 63.9644 153.44 63.9644 153.6C63.9644 154.16 64.0577 154.6 64.2444 154.92C64.4577 155.213 64.7644 155.36 65.1644 155.36ZM66.3644 161.16C65.031 161.667 64.0444 162.187 63.4044 162.72C62.7644 163.28 62.4444 163.893 62.4444 164.56C62.4444 164.907 62.5777 165.213 62.8444 165.48C63.111 165.747 63.431 165.88 63.8044 165.88C64.2577 165.88 64.6977 165.56 65.1244 164.92C65.551 164.28 65.8844 163.413 66.1244 162.32L66.3644 161.16ZM91.9294 131.8C93.2894 130.92 94.7427 130.24 96.2894 129.76C97.8627 129.253 99.396 129 100.889 129C101.076 129 101.276 129.013 101.489 129.04C101.729 129.04 102.063 129.053 102.489 129.08L102.849 153.68L111.249 129.2H114.049L102.929 159H96.8494V131.68C94.7694 132.32 93.196 133.387 92.1294 134.88C91.0894 136.373 90.5694 138.267 90.5694 140.56C90.5694 141.067 90.596 141.507 90.6494 141.88C90.7294 142.253 90.8494 142.613 91.0094 142.96C91.0627 143.067 91.0894 143.147 91.0894 143.2C91.116 143.227 91.1294 143.253 91.1294 143.28C89.636 143.28 88.5427 142.973 87.8494 142.36C87.1827 141.72 86.8494 140.733 86.8494 139.4C86.8494 138.067 87.2894 136.733 88.1694 135.4C89.076 134.067 90.3294 132.867 91.9294 131.8ZM121.099 133.68C121.099 134.56 120.779 135.307 120.139 135.92C119.525 136.533 118.779 136.84 117.899 136.84C117.019 136.84 116.272 136.533 115.659 135.92C115.045 135.307 114.739 134.56 114.739 133.68C114.739 132.8 115.045 132.053 115.659 131.44C116.272 130.8 117.019 130.48 117.899 130.48C118.779 130.48 119.525 130.8 120.139 131.44C120.779 132.053 121.099 132.8 121.099 133.68ZM110.899 154.44C110.899 154.093 110.925 153.707 110.979 153.28C111.032 152.827 111.112 152.347 111.219 151.84L113.939 139H119.699L116.819 152.6C116.765 152.84 116.725 153.067 116.699 153.28C116.672 153.467 116.659 153.667 116.659 153.88C116.659 154.413 116.779 154.8 117.019 155.04C117.285 155.253 117.712 155.36 118.299 155.36C119.045 155.36 119.752 155.04 120.419 154.4C121.085 153.733 121.579 152.88 121.899 151.84H123.579C122.725 154.267 121.579 156.107 120.139 157.36C118.699 158.613 117.045 159.24 115.179 159.24C113.845 159.24 112.792 158.827 112.019 158C111.272 157.147 110.899 155.96 110.899 154.44ZM136.563 142.48C136.563 144.693 135.656 146.627 133.843 148.28C132.029 149.907 129.869 150.787 127.363 150.92C127.336 151.373 127.309 151.72 127.283 151.96C127.283 152.173 127.283 152.36 127.283 152.52C127.283 153.747 127.483 154.613 127.883 155.12C128.309 155.627 129.069 155.88 130.163 155.88C131.416 155.88 132.563 155.6 133.603 155.04C134.669 154.453 135.883 153.387 137.243 151.84H138.603C137.056 154.347 135.376 156.213 133.563 157.44C131.749 158.64 129.763 159.24 127.603 159.24C125.549 159.24 123.989 158.707 122.923 157.64C121.883 156.573 121.363 154.987 121.363 152.88C121.363 151.36 121.603 149.747 122.083 148.04C122.563 146.333 123.203 144.813 124.003 143.48C124.989 141.88 126.163 140.68 127.523 139.88C128.909 139.053 130.456 138.64 132.163 138.64C133.629 138.64 134.723 138.96 135.443 139.6C136.189 140.213 136.563 141.173 136.563 142.48ZM132.483 140.76C131.576 140.76 130.656 141.573 129.723 143.2C128.816 144.8 128.136 146.733 127.683 149C129.229 148.893 130.576 148.187 131.723 146.88C132.896 145.547 133.483 144.053 133.483 142.4C133.483 141.84 133.403 141.427 133.243 141.16C133.083 140.893 132.829 140.76 132.483 140.76ZM136.914 154.44C136.914 154.093 136.941 153.707 136.994 153.28C137.048 152.827 137.128 152.347 137.234 151.84L139.954 139H145.714L142.834 152.6C142.808 152.76 142.781 152.933 142.754 153.12C142.728 153.28 142.714 153.44 142.714 153.6C142.714 154.16 142.808 154.6 142.994 154.92C143.208 155.213 143.514 155.36 143.914 155.36C144.608 155.36 145.221 155.067 145.754 154.48C146.314 153.867 146.768 152.987 147.114 151.84L149.834 139H155.594L152.714 152.6C152.661 152.893 152.608 153.173 152.554 153.44C152.528 153.68 152.514 153.88 152.514 154.04C152.514 154.467 152.621 154.8 152.834 155.04C153.074 155.253 153.421 155.36 153.874 155.36C154.808 155.36 155.714 154.88 156.594 153.92C157.501 152.933 158.314 151.547 159.034 149.76C159.568 148.48 159.994 147.133 160.314 145.72C160.634 144.307 160.794 143.067 160.794 142C160.741 142.107 160.568 142.2 160.274 142.28C160.008 142.36 159.754 142.4 159.514 142.4C159.088 142.4 158.741 142.2 158.474 141.8C158.208 141.373 158.074 140.893 158.074 140.36C158.074 139.693 158.288 139.173 158.714 138.8C159.168 138.4 159.781 138.2 160.554 138.2C161.381 138.2 162.008 138.507 162.434 139.12C162.861 139.733 163.074 140.587 163.074 141.68C163.074 143.493 162.834 145.4 162.354 147.4C161.901 149.373 161.274 151.173 160.474 152.8C159.408 154.907 158.128 156.507 156.634 157.6C155.141 158.693 153.488 159.24 151.674 159.24C150.341 159.24 149.261 158.96 148.434 158.4C147.634 157.813 147.114 156.973 146.874 155.88C146.101 157 145.248 157.84 144.314 158.4C143.408 158.96 142.368 159.24 141.194 159.24C139.861 159.24 138.808 158.827 138.034 158C137.288 157.147 136.914 155.96 136.914 154.44ZM170.44 131H176.2L171 149.76H167.6L170.44 131ZM165.04 155.8C165.04 154.92 165.346 154.173 165.96 153.56C166.6 152.947 167.36 152.64 168.24 152.64C169.12 152.64 169.866 152.947 170.48 153.56C171.093 154.173 171.4 154.92 171.4 155.8C171.4 156.68 171.093 157.44 170.48 158.08C169.866 158.693 169.12 159 168.24 159C167.36 159 166.6 158.693 165.96 158.08C165.346 157.44 165.04 156.68 165.04 155.8Z" fill="#FF6E01"/>
</svg>
